<svg id="Layer_1" data-name="Layer 1" xmlns="http://www.w3.org/2000/svg" viewBox="0 0 1280 1024"><defs><style>.cls-1{fill:#f8333c;stroke:#000;}.cls-1,.cls-6{stroke-miterlimit:10;}.cls-2{fill:#ccc;}.cls-3{fill:#fff;}.cls-4{fill:#8cc63f;}.cls-5{fill:#f9a94b;}.cls-6{fill:none;stroke:#a67c52;stroke-width:1.54px;}.cls-7{fill:#a67c52;}</style></defs><title>Untitled-2</title><circle class="cls-1" cx="640" cy="480.86" r="300"/><rect class="cls-2" x="412.91" y="553.9" width="454.17" height="28.04" rx="12"/><path class="cls-2" d="M639.3,549.06,436,549.23v-.17c0-95.69,91.76-174.43,203.26-174.43s203.26,78.74,203.26,174.43Z"/><rect class="cls-3" x="528.49" y="407.62" width="28.74" height="87.6" rx="14.1" transform="translate(652.05 1148.95) rotate(-138.64)"/><circle class="cls-2" cx="640" cy="374.63" r="15.62"/><ellipse class="cls-4" cx="638.47" cy="485.73" rx="51.53" ry="51.2"/><path class="cls-5" d="M595,529.83l-11-8.56a8.45,8.45,0,0,1-1.18-12.52L656.24,428a10.2,10.2,0,0,1,13.54-1.09l11,8.56A8.45,8.45,0,0,1,682,447.94l-73.41,80.8A10.21,10.21,0,0,1,595,529.83Z"/><path class="cls-6" d="M585.53,517.88c.62-4.13-.5-8.1,5.53-7.46,2.16.23,3.63-.4,3.62-2.51,0-1.3-.9-4.57-.08-5.63,1.51-1.93,5.47-.62,7.55-.66,5.15-.12,2.82-4.25,2.54-7.64-.32-4,5.18-2.78,7.75-3.12,5.79-.76,1.37-10.09,5.68-9.89a5.47,5.47,0,0,0,4.65-2.75,22.08,22.08,0,0,0,2-5,2.52,2.52,0,0,1,.91-1.41c1-.63,2.39.15,3.62,0a3.29,3.29,0,0,0,2.54-2.35c.39-1.11.41-2.31.76-3.43,1-3.13,4-3.25,6.56-4.75,2.76-1.65,3.36-5.07,4-7.8s3-3.52,5.82-3.45c2,0,2.89.81,3.79-.65s.27-4.1,1.13-5.79a9.13,9.13,0,0,1,7.38-4.76"/><path class="cls-6" d="M598.32,525.27c.62-4.14-.5-8.1,5.53-7.46,2.16.22,3.63-.4,3.62-2.51,0-1.3-.9-4.57-.08-5.63,1.51-1.94,5.47-.62,7.55-.67,5.15-.11,2.82-4.24,2.54-7.63-.32-4,5.18-2.78,7.75-3.12,5.79-.77,1.37-10.1,5.68-9.89a5.52,5.52,0,0,0,4.66-2.75,22.9,22.9,0,0,0,2-5,2.49,2.49,0,0,1,.91-1.41c1-.64,2.39.14,3.62,0a3.28,3.28,0,0,0,2.54-2.34c.39-1.11.41-2.31.76-3.44,1-3.12,4-3.24,6.56-4.75,2.76-1.64,3.36-5.06,4-7.79s3-3.52,5.82-3.46c2,.05,2.89.82,3.79-.64s.27-4.1,1.13-5.8a9.16,9.16,0,0,1,7.38-4.76"/><path class="cls-7" d="M674.37,434l3,1c2.15.76,3.76,2.83,2.72,3.52l-1.43.93c-.42.27-.43.81,0,1.45l1.36,2.21c1,1.6-.68,2.19-2.82,1l-3-1.64a4,4,0,0,0-2.33-.61l-2.12.32c-1.54.23-4.17-1.48-4.45-2.9l-.39-2a3.56,3.56,0,0,0-1.41-1.82l-2.67-2c-1.93-1.46-1.89-3.11.07-2.79l2.7.44c.78.12,1.33-.07,1.47-.52l.47-1.56c.34-1.13,3-.44,4.5,1.18l2,2.22A6,6,0,0,0,674.37,434Z"/></svg>